# File created by Blade
# Date/Time:  Thu Jan 22 15:33:09 2015
#---------------------------------------------------------
:version 1.10
:name HOM
:units
  mass 1.0
  length 1.000000
  angle deg
:documentation
     Acclaim Skeleton File
:root
   axis xyz
   order TX TY TZ RX RY RZ
   position 0.000000 0.000000 0.000000
   orientation 0 0 0
:bonedata
   begin
      id 1
      name RightUpLeg_dum
      direction -1.000000 0.000000 0.000000
      length 3.693983
      axis 0.0 0.0 0.0 xyz
   end
   begin
      id 2
      name LeftUpLeg_dum
      direction 1.000000 0.000000 0.000000
      length 3.693983
      axis 0.0 0.0 0.0 xyz
   end
   begin
      id 3
      name Spine_dum
      direction 0.000000 1.000000 0.000000
      length 2.392956
      axis 0.0 0.0 0.0 xyz
   end
   begin
      id 4
      name RightUpLeg
      direction 0.000000 -1.000000 0.000000
      length 15.795667
      axis 0.0 0.0 0.0 xyz
      dof rx ry rz
   end
   begin
      id 5
      name RightLeg
      direction 0.000000 -1.000000 0.000000
      length 14.766989
      axis 0.0 0.0 0.0 xyz
      dof rx ry rz
   end
   begin
      id 6
      name RightFoot
      direction 0.000000 -0.258819 0.965926
      length 4.962790
      axis 15.0 0.0 0.0 xyz
      dof rx ry rz
   end
   begin
      id 7
      name RightToeBase
      direction 0.000000 0.000000 1.000000
      length 2.952750
      axis 0.0 0.0 0.0 xyz
      dof rx ry rz
   end
   begin
      id 8
      name LeftUpLeg
      direction 0.000000 -1.000000 0.000000
      length 15.795667
      axis 0.0 0.0 0.0 xyz
      dof rx ry rz
   end
   begin
      id 9
      name LeftLeg
      direction 0.000000 -1.000000 0.000000
      length 14.766989
      axis 0.0 0.0 0.0 xyz
      dof rx ry rz
   end
   begin
      id 10
      name LeftFoot
      direction 0.000000 -0.258819 0.965926
      length 4.962790
      axis 15.0 0.0 0.0 xyz
      dof rx ry rz
   end
   begin
      id 11
      name LeftToeBase
      direction 0.000000 0.000000 1.000000
      length 2.952750
      axis 0.0 0.0 0.0 xyz
      dof rx ry rz
   end
   begin
      id 12
      name Spine
      direction 0.000000 1.000000 0.000000
      length 0.000000
      axis 0.0 0.0 0.0 xyz
      dof rx ry rz
   end
   begin
      id 13
      name Spine_dum1
      direction 0.000000 1.000000 0.000000
      length 13.207411
      axis 0.0 0.0 0.0 xyz
   end
   begin
      id 14
      name Spine_dum2
      direction 0.000000 1.000000 0.000000
      length 13.207411
      axis 0.0 0.0 0.0 xyz
   end
   begin
      id 15
      name Spine_dum3
      direction 0.000000 1.000000 0.000000
      length 19.250100
      axis 0.0 0.0 0.0 xyz
   end
   begin
      id 16
      name RightShoulder
      direction -1.000000 0.000000 0.000000
      length 8.140465
      axis 0.0 0.0 90.0 xyz
      dof rx ry rz
   end
   begin
      id 17
      name RightArm
      direction -1.000000 0.000000 0.000000
      length 10.649840
      axis 0.0 0.0 90.0 xyz
      dof rx ry rz
   end
   begin
      id 18
      name RightForeArm
      direction -1.000000 0.000000 0.000000
      length 8.304624
      axis 0.0 0.0 90.0 xyz
      dof ry rz rx
   end
   begin
      id 19
      name RightHand
      direction -1.000000 0.000000 0.000000
      length 0.000000
      axis 0.0 0.0 90.0 xyz
      dof rx ry rz
   end
   begin
      id 20
      name RightHand_dum1
      direction -1.000000 0.000000 0.000000
      length 3.937000
      axis 0.0 0.0 90.0 xyz
   end
   begin
      id 21
      name RightHand_dum2
      direction 0.000000 0.000000 0.000000
      length 0.000000
      axis 0.0 0.0 90.0 xyz
   end
   begin
      id 22
      name RightHandThumb1
      direction 0.000000 0.000000 1.000000
      length 3.937000
      axis 0.0 0.0 90.0 xyz
      dof rx rz ry
   end
   begin
      id 23
      name LeftShoulder
      direction 1.000000 0.000000 0.000000
      length 8.140465
      axis 0.0 0.0 -90.0 xyz
      dof rx ry rz
   end
   begin
      id 24
      name LeftArm
      direction 1.000000 0.000000 0.000000
      length 10.649840
      axis 0.0 0.0 -90.0 xyz
      dof rx ry rz
   end
   begin
      id 25
      name LeftForeArm
      direction 1.000000 0.000000 0.000000
      length 8.304624
      axis 0.0 0.0 -90.0 xyz
      dof ry rz rx
   end
   begin
      id 26
      name LeftHand
      direction 1.000000 0.000000 0.000000
      length 0.000000
      axis 0.0 0.0 -90.0 xyz
      dof rx ry rz
   end
   begin
      id 27
      name LeftHand_dum1
      direction 1.000000 0.000000 0.000000
      length 3.937000
      axis 0.0 0.0 -90.0 xyz
   end
   begin
      id 28
      name LeftHand_dum2
      direction 0.000000 0.000000 0.000000
      length 0.000000
      axis 0.0 0.0 -90.0 xyz
   end
   begin
      id 29
      name LeftHandThumb1
      direction 0.000000 0.000000 1.000000
      length 3.937000
      axis 0.0 0.0 -90.0 xyz
      dof rx rz ry
   end
   begin
      id 30
      name Head
      direction 0.000000 1.000000 0.000000
      length 4.527550
      axis 0.0 0.0 0.0 xyz
      dof rx ry rz
   end
:hierarchy
   begin
      root RightUpLeg_dum LeftUpLeg_dum Spine_dum
      RightUpLeg_dum RightUpLeg
      LeftUpLeg_dum LeftUpLeg
      Spine_dum Spine
      RightUpLeg RightLeg
      RightLeg RightFoot
      RightFoot RightToeBase
      LeftUpLeg LeftLeg
      LeftLeg LeftFoot
      LeftFoot LeftToeBase
      Spine Spine_dum1 Spine_dum2 Spine_dum3
      Spine_dum1 RightShoulder
      Spine_dum2 LeftShoulder
      Spine_dum3 Head
      RightShoulder RightArm
      RightArm RightForeArm
      RightForeArm RightHand
      RightHand RightHand_dum1 RightHand_dum2
      RightHand_dum2 RightHandThumb1
      LeftShoulder LeftArm
      LeftArm LeftForeArm
      LeftForeArm LeftHand
      LeftHand LeftHand_dum1 LeftHand_dum2
      LeftHand_dum2 LeftHandThumb1
   end

# File created by Blade
# Date/Time:  Thu Jan 22 15:33:01 2015
# Frame Rate: 120.000 fps
#------------------------------------------------------
:FULLY-SPECIFIED
:DEGREES
572
root -15.212569 3.004411 4.423967 97.955177 -77.165810 -145.187620
RightUpLeg -98.810333 7.406517 9.443547
RightLeg 128.745461 -0.000000 -0.000000
RightFoot 9.179027 1.614720 4.152997
RightToeBase 19.867813 -0.000000 -0.000000
LeftUpLeg -99.527821 7.140810 10.809756
LeftLeg 129.583895 -0.000000 -0.000000
LeftFoot 7.376568 -9.723792 7.842800
LeftToeBase 4.157452 -0.000000 -0.000000
Spine 33.771226 14.579794 15.954431
RightShoulder 0.226926 -1.614708 4.066965
RightArm 13.730204 -30.521774 61.223663
RightForeArm 57.038152 0.000000 31.291254
RightHand 15.684827 -0.000000 10.524070
RightHandThumb1 -24.326973 -0.000000 -32.862282
LeftShoulder 7.725149 27.264014 18.947657
LeftArm 33.753434 33.324437 -54.549002
LeftForeArm 11.407152 -0.000000 56.733642
LeftHand -13.174279 -0.000000 -3.007073
LeftHandThumb1 -26.253704 0.000000 33.147579
Head 55.536277 -12.459519 8.722288
573
root -15.227721 3.006291 4.421562 97.877183 -77.238438 -144.948880
RightUpLeg -98.731792 7.306958 9.463668
RightLeg 128.895959 -0.000000 -0.000000
RightFoot 9.040193 1.591010 4.408606
RightToeBase 19.787723 -0.000000 -0.000000
LeftUpLeg -99.700902 7.104543 10.764468
LeftLeg 129.633510 -0.000000 -0.000000
LeftFoot 7.333581 -9.826025 7.894768
LeftToeBase 4.193001 -0.000000 -0.000000
Spine 33.374141 14.624230 15.744066
RightShoulder -0.086006 -1.897282 3.953162
RightArm 12.837124 -29.815877 61.987603
RightForeArm 56.052817 -0.000000 32.421846
RightHand 15.224726 0.000000 11.235618
RightHandThumb1 -24.326973 -0.000000 -32.862282
LeftShoulder 7.500111 27.402621 18.753787
LeftArm 32.755378 32.834555 -55.857292
LeftForeArm 11.339490 -0.000000 56.957968
LeftHand -13.278037 -0.000000 -3.080067
LeftHandThumb1 -26.253704 0.000000 33.147579
Head 55.318922 -12.519514 8.782604
574
root -15.239101 3.008230 4.426421 97.915505 -77.238257 -144.857210
RightUpLeg -98.578719 7.250513 9.519679
RightLeg 129.023568 -0.000000 -0.000000
RightFoot 8.665428 1.340898 4.792874
RightToeBase 19.530545 -0.000000 -0.000000
LeftUpLeg -99.841268 7.051657 10.774531
LeftLeg 129.691405 -0.000000 -0.000000
LeftFoot 7.319283 -9.815739 8.127154
LeftToeBase 3.767660 -0.000000 -0.000000
Spine 33.018187 14.634962 15.619843
RightShoulder -0.423296 -2.127627 3.792569
RightArm 11.914510 -29.570561 62.594049
RightForeArm 55.157725 -0.000000 33.814685
RightHand 15.306847 -0.000000 11.253461
RightHandThumb1 -24.326973 -0.000000 -32.862282
LeftShoulder 7.245873 27.524399 18.504514
LeftArm 31.662355 32.258325 -57.312568
LeftForeArm 11.465580 -0.000000 57.177149
LeftHand -13.250115 -0.000000 -3.067827
LeftHandThumb1 -26.253704 0.000000 33.147579
Head 55.142493 -12.519910 8.732636
575
root -15.255732 3.012300 4.424736 97.941655 -77.347298 -144.709452
RightUpLeg -98.495835 7.183995 9.502777
RightLeg 129.221481 -0.000000 -0.000000
RightFoot 7.966791 0.807985 5.683968
RightToeBase 19.265741 -0.000000 -0.000000
LeftUpLeg -100.028519 7.017364 10.688585
LeftLeg 129.708517 -0.000000 -0.000000
LeftFoot 7.399779 -9.884293 7.995133
LeftToeBase 3.771949 -0.000000 -0.000000
Spine 32.578617 14.661586 15.344374
RightShoulder -0.783742 -2.470159 3.630768
RightArm 11.096657 -28.931474 63.357428
RightForeArm 53.939591 -0.000000 35.027761
RightHand 14.971771 -0.000000 11.620359
RightHandThumb1 -24.326973 -0.000000 -32.862282
LeftShoulder 6.941819 27.756764 18.269019
LeftArm 30.875448 31.681805 -58.511091
LeftForeArm 11.127789 -0.000000 57.250710
LeftHand -13.378071 -0.000000 -2.518086
LeftHandThumb1 -26.253704 0.000000 33.147579
Head 55.008669 -12.555678 8.767574
576
root -15.268084 3.014811 4.429765 97.767889 -77.398436 -144.367573
RightUpLeg -98.379745 7.071991 9.480295
RightLeg 129.395713 -0.000000 -0.000000
RightFoot 6.928249 0.394412 6.690064
RightToeBase 19.287553 -0.000000 -0.000000
LeftUpLeg -100.217090 6.914995 10.611828
LeftLeg 129.751758 -0.000000 -0.000000
LeftFoot 7.365019 -9.816647 8.069682
LeftToeBase 3.722582 -0.000000 -0.000000
Spine 32.151824 14.611298 15.154667
RightShoulder -1.120893 -2.824056 3.411108
RightArm 10.277073 -28.289422 64.148566
RightForeArm 52.874672 0.000000 36.251540
RightHand 14.871022 -0.000000 11.841782
RightHandThumb1 -24.326973 -0.000000 -32.862282
LeftShoulder 6.654355 27.893965 17.997507
LeftArm 29.969290 31.171555 -59.761121
LeftForeArm 10.819442 -0.000000 57.316547
LeftHand -13.329257 0.000000 -2.478055
LeftHandThumb1 -26.253704 0.000000 33.147579
Head 54.858326 -12.567930 8.727019
577
root -15.280762 3.019029 4.427000 97.643342 -77.455350 -144.079835
RightUpLeg -98.259219 6.987038 9.453996
RightLeg 129.536313 -0.000000 -0.000000
RightFoot 5.779817 0.145364 7.491010
RightToeBase 19.764737 -0.000000 -0.000000
LeftUpLeg -100.394647 6.854379 10.541510
LeftLeg 129.800645 -0.000000 -0.000000
LeftFoot 7.310161 -9.781409 8.190377
LeftToeBase 3.786411 -0.000000 -0.000000
Spine 31.725405 14.580905 14.910643
RightShoulder -1.515892 -3.131756 3.261995
RightArm 9.464871 -27.851159 64.827999
RightForeArm 51.874462 -0.000000 37.613679
RightHand 14.723879 0.000000 11.728753
RightHandThumb1 -24.326973 -0.000000 -32.862282
LeftShoulder 6.347993 28.011800 17.768921
LeftArm 29.057085 30.651389 -61.033253
LeftForeArm 10.470007 -0.000000 57.346136
LeftHand -13.141618 -0.000000 -2.578594
LeftHandThumb1 -26.253704 0.000000 33.147579
Head 54.691633 -12.607280 8.851751
578
root -15.291193 3.023339 4.425418 97.550656 -77.509140 -143.820093
RightUpLeg -98.153617 6.912672 9.413336
RightLeg 129.651436 -0.000000 -0.000000
RightFoot 4.625021 0.135391 7.778946
RightToeBase 20.384071 -0.000000 -0.000000
LeftUpLeg -100.576299 6.790323 10.466057
LeftLeg 129.844087 -0.000000 -0.000000
LeftFoot 7.277228 -9.722220 8.277759
LeftToeBase 3.821514 -0.000000 -0.000000
Spine 31.297280 14.552925 14.672589
RightShoulder -1.925317 -3.367738 3.088132
RightArm 8.554578 -27.365855 65.596100
RightForeArm 50.881255 -0.000000 39.031098
RightHand 14.363644 -0.000000 11.425861
RightHandThumb1 -24.326973 -0.000000 -32.862282
LeftShoulder 6.075807 28.120267 17.547182
LeftArm 28.128388 30.108025 -62.331196
LeftForeArm 10.093407 -0.000000 57.380102
LeftHand -13.170339 -0.000000 -2.778221
LeftHandThumb1 -26.253704 0.000000 33.147579
Head 54.540417 -12.661594 8.949750
579
root -15.299411 3.027571 4.426400 97.435431 -77.529872 -143.538570
RightUpLeg -98.042922 6.832726 9.394431
RightLeg 129.752688 -0.000000 -0.000000
RightFoot 3.447579 0.354708 7.641823
RightToeBase 20.768013 -0.000000 -0.000000
LeftUpLeg -100.756827 6.718539 10.453655
LeftLeg 129.870579 -0.000000 -0.000000
LeftFoot 7.247912 -9.777098 8.348467
LeftToeBase 3.692422 -0.000000 -0.000000
Spine 30.864032 14.498743 14.492988
RightShoulder -2.249647 -3.660955 2.876344
RightArm 7.639218 -26.943415 66.337487
RightForeArm 49.846185 -0.000000 40.414011
RightHand 14.122350 -0.000000 11.050469
RightHandThumb1 -24.326973 -0.000000 -32.862282
LeftShoulder 5.787577 28.261407 17.253909
LeftArm 27.288425 29.578865 -63.463563
LeftForeArm 9.598953 -0.000000 57.410460
LeftHand -13.034699 -0.000000 -2.614253
LeftHandThumb1 -26.253704 0.000000 33.147579
Head 54.423406 -12.678260 9.016020
580
root -15.307552 3.032228 4.426759 97.381404 -77.600187 -143.362141
RightUpLeg -97.930983 6.764371 9.279310
RightLeg 129.820273 -0.000000 -0.000000
RightFoot 2.595275 0.682589 7.814681
RightToeBase 20.544176 -0.000000 -0.000000
LeftUpLeg -100.888265 6.648336 10.355420
LeftLeg 129.909524 -0.000000 -0.000000
LeftFoot 7.182868 -9.689632 8.445079
LeftToeBase 3.531600 -0.000000 -0.000000
Spine 30.484577 14.445293 14.248658
RightShoulder -2.621381 -3.777688 2.672255
RightArm 6.651108 -26.700957 67.096968
RightForeArm 48.996076 -0.000000 41.723870
RightHand 13.609980 -0.000000 10.792190
RightHandThumb1 -24.326973 -0.000000 -32.862282
LeftShoulder 5.468308 28.281505 16.956554
LeftArm 26.370343 29.049962 -64.636068
LeftForeArm 9.097023 0.000000 57.440956
LeftHand -13.022036 -0.000000 -3.078910
LeftHandThumb1 -26.253704 0.000000 33.147579
Head 54.311944 -12.718911 9.135798
581
root -15.313229 3.039112 4.428028 97.249093 -77.627397 -143.110629
RightUpLeg -97.828059 6.689825 9.237099
RightLeg 129.843071 -0.000000 -0.000000
RightFoot 2.007484 0.927644 7.913976
RightToeBase 20.178875 -0.000000 -0.000000
LeftUpLeg -101.024657 6.567338 10.321594
LeftLeg 129.941116 -0.000000 -0.000000
LeftFoot 7.136058 -9.688296 8.561320
LeftToeBase 3.188709 -0.000000 -0.000000
Spine 30.099823 14.346624 14.057657
RightShoulder -2.945171 -4.057540 2.477581
RightArm 5.821606 -26.387622 67.759321
RightForeArm 48.253785 -0.000000 42.974509
RightHand 13.598447 -0.000000 10.289295
RightHandThumb1 -24.326973 -0.000000 -32.862282
LeftShoulder 5.156717 28.443090 16.651315
LeftArm 25.649807 28.498379 -65.663255
LeftForeArm 8.986488 -0.000000 57.444424
LeftHand -12.922757 -0.000000 -3.185664
LeftHandThumb1 -26.253704 0.000000 33.147579
Head 54.235164 -12.768399 9.188771
582
root -15.321135 3.036135 4.460019 96.145622 -77.676285 -141.924900
RightUpLeg -97.758006 6.267349 9.163382
RightLeg 129.882297 -0.000000 -0.000000
RightFoot 1.560959 1.106255 8.122946
RightToeBase 20.377007 -0.000000 -0.000000
LeftUpLeg -101.219905 6.170767 10.176274
LeftLeg 129.957037 -0.000000 -0.000000
LeftFoot 7.112308 -9.538465 8.555887
LeftToeBase 3.355374 -0.000000 -0.000000
Spine 29.737926 13.984977 14.002368
RightShoulder -3.281710 -4.230214 2.080209
RightArm 4.896637 -26.103432 68.519905
RightForeArm 47.526431 -0.000000 44.138254
RightHand 13.485232 -0.000000 9.910802
RightHandThumb1 -24.326973 -0.000000 -32.862282
LeftShoulder 4.870648 28.582769 16.259311
LeftArm 24.960175 27.916942 -66.674244
LeftForeArm 8.315720 0.000000 57.486975
LeftHand -12.991185 -0.000000 -3.684940
LeftHandThumb1 -26.253704 0.000000 33.147579
Head 54.164674 -12.751513 8.985986
583
root -15.319746 3.047432 4.452818 95.980036 -77.602925 -141.626826
RightUpLeg -97.665794 6.222663 9.283337
RightLeg 129.808631 -0.000000 -0.000000
RightFoot 1.320555 1.011000 8.483488
RightToeBase 20.144784 -0.000000 -0.000000
LeftUpLeg -101.363517 6.141891 10.204822
LeftLeg 130.008459 -0.000000 -0.000000
LeftFoot 6.931125 -9.407324 8.791918
LeftToeBase 3.070870 -0.000000 -0.000000
Spine 29.335530 13.879006 13.882712
RightShoulder -3.562244 -4.493527 1.942364
RightArm 4.155470 -25.806903 69.076527
RightForeArm 46.768956 -0.000000 45.206810
RightHand 13.361522 -0.000000 9.529965
RightHandThumb1 -24.326973 -0.000000 -32.862282
LeftShoulder 4.591795 28.637045 15.930269
LeftArm 24.205550 27.455690 -67.592211
LeftForeArm 8.334419 0.000000 57.482502
LeftHand -12.902505 -0.000000 -4.111064
LeftHandThumb1 -26.253704 0.000000 33.147579
Head 54.175703 -12.799828 9.136496
